<?xml version="1.0"?>
<svg xmlns="http://www.w3.org/2000/svg" xmlns:xlink="http://www.w3.org/1999/xlink" xmlns:svgjs="http://svgjs.com/svgjs" version="1.1" width="512" height="512" x="0" y="0" viewBox="0 0 512 512" style="enable-background:new 0 0 512 512" xml:space="preserve" class=""><g><link type="text/css" rel="stylesheet" id="dark-mode-general-link"/><link type="text/css" rel="stylesheet" id="dark-mode-custom-link"/><style lang="en" type="text/css" id="dark-mode-custom-style"/>
<g xmlns="http://www.w3.org/2000/svg">
	<g>
		<path d="M449.802,96.01c-6.873-12.602-16.772-23.307-28.619-31.194c2.931-1.385,5.893-2.881,8.883-4.513    c2.329-1.27,3.813-3.675,3.905-6.327c0.091-2.651-1.224-5.154-3.459-6.581c-0.721-0.46-17.925-11.323-40.587-15.2    c-27.61-4.721-51.294,2.88-69.068,22.007c-13.573-18.955-31.533-33.706-52.617-43.039C239.721-1.461,206.316-3.42,171.631,5.499    c-40.736,10.476-71.071,39.344-83.23,79.202c-4.896,16.05-8.462,39.94-2.884,70.868c-3.59-0.804-7.164-0.871-10.341-0.4    c-4.098,0.607-6.928,4.421-6.321,8.519c0.607,4.098,4.423,6.929,8.519,6.321c2.902-0.428,9.983-0.492,13.523,7.955    c8.45,28.298,24.437,61.315,52.409,98.599c-9.173-2.462-18.392-3.034-26.726-1.358c-14.622,2.939-25.571,12.636-30.829,27.306    c-3.243,9.046-3.315,17.542-2.37,25.737c-14.493,2.271-27.647,11.469-34.312,25.731c-17.166,36.735-0.169,91.152,0.563,93.451    c0.635,1.994,2.075,3.633,3.971,4.519c1.005,0.469,2.089,0.705,3.175,0.705c0.964,0,1.928-0.186,2.839-0.558    c2.232-0.913,54.879-22.788,72.044-59.524c10.64-22.771,0.771-49.953-22-60.593c-3.63-1.696-7.374-2.866-11.144-3.55    c-0.987-7.208-1.126-13.941,1.353-20.855c3.514-9.802,10.13-15.744,19.664-17.66c16.036-3.223,37.643,5.331,51.399,20.342    c39.833,44.799,60.343,95.242,70.535,129.674c11.1,37.503,12.723,64.714,12.738,64.979c0.218,3.997,3.527,7.093,7.483,7.092    c0.137,0,0.276-0.003,0.415-0.011c4.136-0.226,7.307-3.761,7.081-7.898c-0.063-1.161-1.683-28.885-13.199-67.965    c-7.731-26.236-21.208-61.372-44.102-96.689c-0.069-0.169-0.136-0.339-0.218-0.505c-1.391-2.817-5.332-12.457,2.378-18.176    c3.327-2.468,4.023-7.167,1.556-10.493c-2.468-3.327-7.166-4.023-10.493-1.556c-3.572,2.65-6.275,5.936-8.072,9.641    c-4.664-6.098-9.632-12.147-14.931-18.105c-36.867-41.447-62.065-81.984-74.894-120.484c-7.841-23.531-10.84-46.249-8.991-66.937    c4.506-7.66,11.021-11.246,18.917-10.357c4.381,0.491,9.269,2.425,14.078,5.824c-2.654,2.742-4.911,5.896-6.684,9.397    c-4.627,9.143-5.418,19.54-2.225,29.277c10.409,31.747,51.105,54.732,52.832,55.694c1.128,0.629,2.386,0.949,3.652,0.949    c0.786,0,1.574-0.124,2.336-0.374c1.989-0.652,3.615-2.105,4.485-4.01c0.822-1.798,20.007-44.417,9.599-76.164    c-6.59-20.099-28.305-31.089-48.405-24.501c-0.842,0.276-1.664,0.589-2.478,0.918c-7.678-6.66-16.431-10.899-25.521-11.918    c-5.787-0.65-11.261,0.098-16.229,2.111c0.058-0.195,0.105-0.396,0.165-0.59c10.596-34.739,37.064-59.907,72.617-69.05    c4.16-1.07,8.276-1.968,12.345-2.702c0.005-0.001,0.01,0,0.015-0.001c2.382-0.275,4.512,0.289,5.996,1.592    c2.028,1.783,2.485,4.653,2.512,6.746c0.053,4.109,3.4,7.405,7.499,7.405c0.033,0,0.065,0,0.098,0    c4.142-0.053,7.458-3.454,7.405-7.596c-0.049-3.804-0.82-7.348-2.229-10.473c18.973-0.669,36.764,2.625,53.159,9.883    c13.99,6.194,26.441,15.098,36.867,26.266c-25.424,12.925-34.045,34.452-36.687,50.998c-3.067,19.21,1.199,35.512,1.382,36.197    c0.594,2.222,2.175,4.048,4.29,4.956c0.946,0.406,1.952,0.607,2.956,0.607c1.239,0,2.475-0.307,3.591-0.916    c2.339-1.275,4.852-2.493,7.513-3.783c0.732-0.355,1.466-0.711,2.202-1.071c-0.022,14.647,3.604,29.159,10.758,42.275    c21.127,38.741,84.555,79.201,87.245,80.904c1.245,0.788,2.633,1.165,4.005,1.165c2.485,0,4.916-1.234,6.345-3.488    c0.288-0.455,0.518-0.929,0.698-1.414h0.001c1.464-3.962,2.828-7.888,4.144-11.793c22.018,10.737,35.253,15.809,35.867,16.043    c0.862,0.328,1.767,0.491,2.668,0.491c1.241,0,2.477-0.308,3.591-0.916c1.924-1.049,3.293-2.888,3.747-5.033    c0.136-0.642,3.039-14.511,5.936-38.827c3.99,1.007,8.039,1.974,12.16,2.889v-0.002c0.505,0.112,1.029,0.175,1.568,0.179    c0.02,0,0.039,0,0.058,0c4.115,0,7.467-3.319,7.5-7.442C470.594,209.983,470.929,134.751,449.802,96.01z M101.27,344.712    c0.687,0.263,1.37,0.542,2.046,0.858c7.4,3.456,13.01,9.59,15.799,17.268c2.788,7.679,2.418,15.983-1.04,23.383    c-11.104,23.763-41.859,41.223-56.369,48.395c-3.808-15.733-10.147-50.524,0.957-74.288c4.485-9.6,13.354-15.78,23.116-17.277    c2.233,12.677,3.687,24.87-4.464,38.908c-2.08,3.582-0.862,8.173,2.72,10.253c1.186,0.688,2.48,1.016,3.759,1.016    c2.585,0,5.102-1.338,6.494-3.735C104.024,372.728,103.349,357.961,101.27,344.712z M137.924,124.461    c1.068-2.111,2.426-4.013,4.021-5.672c4.776,6.25,8.913,14.297,11.625,24.192c0.914,3.332,3.934,5.521,7.23,5.521    c0.656,0,1.324-0.087,1.987-0.269c3.995-1.095,6.347-5.221,5.252-9.217c-2.796-10.2-7.153-19.399-12.587-27.121    c1.101-0.158,2.202-0.247,3.296-0.247c9.825,0,18.992,6.253,22.215,16.085c6.207,18.928-1.191,44.447-5.816,57.241    c-11.304-7.574-32.373-23.756-38.579-42.684C134.624,136.359,135.106,130.028,137.924,124.461z M386.973,46.911    c8.647,1.435,16.488,4.108,22.585,6.671c-32.974,13.987-61.028,11.56-75.55,8.594C347.942,48.517,365.708,43.382,386.973,46.911z     M286.958,116.637c-0.29,1.149-0.545,2.302-0.788,3.456c-2.777,1.756-6.162,3.44-9.539,5.082    c-1.697-15.776-0.511-47.329,32.16-62.051c1.992,2.793,3.876,5.691,5.65,8.685C301.001,83.52,291.394,99.081,286.958,116.637z     M430.309,244.362c-6.328-2.704-16.017-7.027-28.26-13.041c2.663-9.031,4.909-17.87,6.712-26.466    c8.215,3.144,16.854,6.048,25.887,8.699C433.074,227.098,431.462,237.58,430.309,244.362z M396.793,183.533    c-3.753-1.749-8.217-0.123-9.966,3.631c-1.75,3.755-0.124,8.217,3.631,9.966c1.378,0.642,2.774,1.275,4.181,1.901    c-2.818,14.125-6.902,28.992-12.191,44.372c-17.451-11.957-59.086-42.386-74.241-70.175c-8.847-16.222-11.228-35.015-6.705-52.917    c1.443-5.713,3.553-11.167,6.248-16.279c1.177,26.003,19.358,53.124,49.906,74.43c1.307,0.912,2.803,1.349,4.284,1.349    c2.369,0,4.701-1.12,6.159-3.21c2.37-3.397,1.537-8.073-1.861-10.443c-26.731-18.644-42.588-41.57-43.509-62.901    c-0.466-10.8,3.067-19.991,9.943-25.964c6.493,1.261,14.872,2.321,24.723,2.321c13.098,0,28.785-1.881,46.037-7.65    c14.195,6.614,25.636,17.356,33.199,31.226c15.14,27.763,18.182,79.278,18.788,100.426    C433.626,198.262,413.94,191.52,396.793,183.533z" fill="#003049" data-original="#000000" style="" class=""/>
	</g>
</g>
<g xmlns="http://www.w3.org/2000/svg">
	<g>
		<path d="M364.495,351.1c-0.489-2.062-12.333-50.869-41.416-78.865c-15.657-15.072-35.86-19.71-49.854-12.566    c-10.657-8.751-19.074-13.813-19.715-14.195c-3.561-2.12-8.163-0.951-10.282,2.609c-2.119,3.559-0.951,8.163,2.609,10.282    c0.136,0.081,7.165,4.311,16.349,11.69c-3.786,6.429-4.932,14.447-3.196,23.189c2.028,10.21,7.842,20.354,16.369,28.563    c29.083,27.997,78.305,37.974,80.386,38.385c0.484,0.096,0.97,0.142,1.453,0.142c2.018,0,3.976-0.815,5.404-2.299    C364.371,356.196,365.084,353.583,364.495,351.1z M285.763,311c-6.249-6.015-10.643-13.551-12.059-20.678    c-0.485-2.442-0.889-6.309,0.239-9.959c5.66,5.432,11.403,11.718,16.412,18.695c1.465,2.041,3.765,3.126,6.1,3.126    c1.515,0,3.043-0.458,4.368-1.408c3.365-2.416,4.134-7.103,1.718-10.467c-5.013-6.984-10.63-13.297-16.225-18.844    c0.412-0.025,0.825-0.047,1.247-0.047c7.772,0,17.321,4.125,25.112,11.625c17.607,16.949,28.439,43.74,33.596,59.273    C330.552,337.752,303.369,327.948,285.763,311z" fill="#003049" data-original="#000000" style="" class=""/>
	</g>
</g>
<g xmlns="http://www.w3.org/2000/svg">
</g>
<g xmlns="http://www.w3.org/2000/svg">
</g>
<g xmlns="http://www.w3.org/2000/svg">
</g>
<g xmlns="http://www.w3.org/2000/svg">
</g>
<g xmlns="http://www.w3.org/2000/svg">
</g>
<g xmlns="http://www.w3.org/2000/svg">
</g>
<g xmlns="http://www.w3.org/2000/svg">
</g>
<g xmlns="http://www.w3.org/2000/svg">
</g>
<g xmlns="http://www.w3.org/2000/svg">
</g>
<g xmlns="http://www.w3.org/2000/svg">
</g>
<g xmlns="http://www.w3.org/2000/svg">
</g>
<g xmlns="http://www.w3.org/2000/svg">
</g>
<g xmlns="http://www.w3.org/2000/svg">
</g>
<g xmlns="http://www.w3.org/2000/svg">
</g>
<g xmlns="http://www.w3.org/2000/svg">
</g>
</g></svg>
